HIERARCHY
ROOT Hips
{
 OFFSET 0.000000 0.000000 0.000000
 CHANNELS 6 Xposition Yposition Zposition Yrotation Xrotation Zrotation
 JOINT Chest
 {
  OFFSET 0.000000 13.173100 -0.061900
  CHANNELS 3 Yrotation Xrotation Zrotation
  JOINT Chest2
  {
   OFFSET 0.000000 8.040800 0.126200
   CHANNELS 3 Yrotation Xrotation Zrotation
   JOINT Chest3
   {
    OFFSET 0.000000 7.994400 0.000000
    CHANNELS 3 Yrotation Xrotation Zrotation
    JOINT Chest4
    {
     OFFSET 0.000000 7.986200 0.000000
     CHANNELS 3 Yrotation Xrotation Zrotation
     JOINT Neck
     {
      OFFSET 0.000000 12.259400 0.000000
      CHANNELS 3 Yrotation Xrotation Zrotation
      JOINT Head
      {
       OFFSET 0.000000 7.518700 0.267100
       CHANNELS 3 Yrotation Xrotation Zrotation
       End Site
       {
        OFFSET 0.000000 13.617700 0.141000
       }
      }
     }
     JOINT RightCollar
     {
      OFFSET -2.983800 8.314300 0.000000
      CHANNELS 3 Yrotation Xrotation Zrotation
      JOINT RightShoulder
      {
       OFFSET -16.133400 0.000000 0.000000
       CHANNELS 3 Yrotation Xrotation Zrotation
       JOINT RightElbow
       {
        OFFSET 0.000000 -29.822100 0.000000
        CHANNELS 3 Yrotation Xrotation Zrotation
        JOINT RightWrist
        {
         OFFSET 0.000000 -24.437700 0.010900
         CHANNELS 3 Yrotation Xrotation Zrotation
         End Site
         {
          OFFSET 0.000000 -18.312300 0.000000
         }
        }
       }
      }
     }
     JOINT LeftCollar
     {
      OFFSET 2.983800 8.314300 0.000000
      CHANNELS 3 Yrotation Xrotation Zrotation
      JOINT LeftShoulder
      {
       OFFSET 16.133400 0.000000 0.000000
       CHANNELS 3 Yrotation Xrotation Zrotation
       JOINT LeftElbow
       {
        OFFSET 0.000000 -29.822100 0.000000
        CHANNELS 3 Yrotation Xrotation Zrotation
        JOINT LeftWrist
        {
         OFFSET 0.000000 -24.437700 0.010900
         CHANNELS 3 Yrotation Xrotation Zrotation
         End Site
         {
          OFFSET 0.000000 -18.312300 0.000000
         }
        }
       }
      }
     }
    }
   }
  }
 }
 JOINT RightHip
 {
  OFFSET -11.206700 0.306200 0.030900
  CHANNELS 3 Yrotation Xrotation Zrotation
  JOINT RightKnee
  {
   OFFSET 0.000000 -57.334900 0.009400
   CHANNELS 3 Yrotation Xrotation Zrotation
   JOINT RightAnkle
   {
    OFFSET 0.000000 -43.376200 0.036600
    CHANNELS 3 Yrotation Xrotation Zrotation
    JOINT RightToe
    {
     OFFSET 0.000000 -10.035500 18.363100
     CHANNELS 3 Yrotation Xrotation Zrotation
     End Site
     {
      OFFSET 0.000000 -1.618500 7.239000
     }
    }
   }
  }
 }
 JOINT LeftHip
 {
  OFFSET 11.206700 0.306200 0.030900
  CHANNELS 3 Yrotation Xrotation Zrotation
  JOINT LeftKnee
  {
   OFFSET 0.000000 -57.334900 0.009400
   CHANNELS 3 Yrotation Xrotation Zrotation
   JOINT LeftAnkle
   {
    OFFSET 0.000000 -43.376200 0.036600
    CHANNELS 3 Yrotation Xrotation Zrotation
    JOINT LeftToe
    {
     OFFSET 0.000000 -10.035500 18.363100
     CHANNELS 3 Yrotation Xrotation Zrotation
     End Site
     {
      OFFSET 0.000000 -1.618500 7.239000
     }
    }
   }
  }
 }
}
MOTION
Frames: 11
Frame Time: 0.008333
0.000000 110.232800 0.000000 0.000000 -5.767877 0.000000 0.000000 11.653817 0.000000 0.000000 -5.885947 0.000000 0.000000 -0.000000 0.000000 0.000000 -0.000000 0.000000 0.000000 12.528835 0.000000 0.000000 0.711642 0.000000 0.000000 -0.000000 0.000000 0.000000 0.000000 -90.000000 0.000000 -2.309062 0.000000 0.000000 2.309062 0.000000 0.000000 -0.000000 0.000000 0.000000 -0.000000 90.000000 0.000000 -2.309062 0.000000 0.000000 2.309062 0.000000 0.000000 8.520406 0.000000 0.000000 1.905762 0.000000 -0.000000 -4.658285 0.000000 0.000000 -0.000000 0.000000 0.000000 8.520406 0.000000 0.000000 1.905762 0.000000 -0.000000 -4.658285 0.000000 0.000000 -0.000000 0.000000
-75.373046 75.439978 52.569498 -171.550823 -29.165136 -10.158715 -3.209489 13.352204 5.323240 -2.278712 7.871944 1.504389 -2.822360 9.848639 1.835251 -2.274880 7.885260 1.513462 2.119661 20.672291 -1.938006 2.712971 -3.685533 -2.540488 7.415820 -3.310655 -2.504251 1.604759 -23.335180 -2.931349 54.138775 -32.560074 -34.742435 10.967437 16.415980 -6.074781 -10.181796 -1.889708 -5.732638 -8.261595 -21.736049 3.957952 -57.940968 -26.350411 47.809692 2.307065 4.354773 -1.086799 -26.012464 -29.033293 4.884235 47.047244 86.661482 45.117087 1.685574 -26.226237 -4.793072 -0.896284 2.323722 -0.503635 -14.395641 -48.024909 9.026525 176.413539 71.764161 174.251109 -3.123192 -25.661699 1.667832 -0.400320 -0.843477 -0.194190
-75.346744 75.265475 52.579116 -171.590554 -29.157941 -10.239289 -3.160306 13.337727 5.427497 -2.275608 7.877774 1.506452 -2.822011 9.864566 1.843426 -2.273837 7.881628 1.505782 2.117883 20.686454 -1.926556 2.711217 -3.706390 -2.556488 7.405284 -3.316170 -2.502144 1.531881 -23.294920 -2.886522 54.206303 -32.619683 -34.820631 10.980390 16.393071 -6.089715 -10.184639 -1.875026 -5.725880 -8.163189 -21.681218 3.912320 -57.971288 -26.488691 47.906079 2.301684 4.293785 -1.062582 -26.052078 -29.054228 5.009994 48.136017 86.736064 46.210538 1.754769 -26.347702 -4.809343 -0.942315 2.404475 -0.529304 -14.444927 -48.017837 9.180695 176.477961 71.755579 174.340310 -3.116954 -25.663795 1.662712 -0.403246 -0.850819 -0.193541
-75.327433 75.075839 52.586931 -171.605718 -29.162503 -10.304198 -3.136206 13.338871 5.505001 -2.274916 7.884519 1.506719 -2.821921 9.867978 1.840192 -2.270939 7.880850 1.504119 2.113157 20.694008 -1.918587 2.709778 -3.703117 -2.554287 7.375157 -3.308109 -2.480064 1.483066 -23.262737 -2.855598 54.271792 -32.681236 -34.893959 10.991659 16.372096 -6.106941 -10.184554 -1.873569 -5.724302 -8.067066 -21.610280 3.876247 -58.004042 -26.624304 47.991836 2.294827 4.229921 -1.030243 -26.115979 -29.077714 5.111876 49.419481 86.811333 47.476141 1.797090 -26.462629 -4.821221 -0.967481 2.477466 -0.548930 -14.497349 -47.995190 9.287873 176.504586 71.760766 174.381562 -3.099036 -25.656820 1.649713 -0.412060 -0.861766 -0.200296
-75.309904 74.881149 52.596376 -171.612258 -29.159354 -10.367370 -3.122260 13.332348 5.572919 -2.275188 7.889659 1.506836 -2.817770 9.870706 1.838322 -2.275142 7.889642 1.506788 2.110496 20.694069 -1.910107 2.709272 -3.699901 -2.553992 7.355904 -3.307549 -2.466205 1.423379 -23.230187 -2.818044 54.333158 -32.744827 -34.956903 10.993555 16.354286 -6.130097 -10.171835 -1.860686 -5.720139 -7.981547 -21.561621 3.844411 -58.055443 -26.734540 48.070889 2.312818 4.164457 -0.995223 -26.176989 -29.112166 5.202298 50.703767 86.892443 48.756609 1.847730 -26.566088 -4.843903 -0.993201 2.537211 -0.558190 -14.550653 -47.977288 9.384643 176.523563 71.775620 174.417077 -3.079946 -25.643109 1.632251 -0.424339 -0.876438 -0.209015
-75.295360 74.692478 52.604778 -171.615483 -29.160815 -10.423250 -3.111826 13.329875 5.633763 -2.276473 7.893959 1.507156 -2.819393 9.876112 1.838785 -2.276511 7.893912 1.507184 2.108399 20.687926 -1.907481 2.703029 -3.689989 -2.536625 7.356936 -3.310530 -2.469966 1.335037 -23.194096 -2.766558 54.387861 -32.809076 -35.008485 10.984945 16.335855 -6.161900 -10.163876 -1.821895 -5.716770 -7.897586 -21.541131 3.819312 -58.101149 -26.838953 48.137873 2.329167 4.098406 -0.963140 -26.226436 -29.141256 5.276530 51.902258 86.964625 49.958622 1.886441 -26.658054 -4.861346 -1.008508 2.588126 -0.566749 -14.598448 -47.949885 9.465384 176.542205 71.799768 174.450207 -3.063777 -25.622768 1.619727 -0.432997 -0.890335 -0.216111
-75.282061 74.516218 52.612367 -171.622027 -29.164672 -10.475865 -3.099260 13.327412 5.692166 -2.278024 7.896351 1.507221 -2.821447 9.879234 1.838730 -2.278042 7.896547 1.507314 2.110400 20.687473 -1.909952 2.704904 -3.688143 -2.538577 7.346016 -3.297088 -2.458124 1.312622 -23.187492 -2.758906 54.375121 -32.866047 -35.028572 10.976164 16.313120 -6.197539 -10.153285 -1.803821 -5.720353 -7.821850 -21.497212 3.801612 -58.165944 -26.912039 48.194031 2.376247 4.037385 -0.925408 -26.268162 -29.161360 5.342920 52.970215 87.023246 51.033898 1.921411 -26.732647 -4.878656 -1.031150 2.627316 -0.570724 -14.637827 -47.915094 9.538752 176.563026 71.831923 174.487348 -3.045528 -25.598019 1.605487 -0.438923 -0.906622 -0.221106
-75.274553 74.355343 52.618039 -171.621919 -29.175533 -10.510064 -3.103125 13.323230 5.728482 -2.279631 7.900564 1.504980 -2.818604 9.888836 1.834258 -2.279649 7.897964 1.506541 2.113724 20.687617 -1.908823 2.698115 -3.694878 -2.525755 7.340941 -3.268105 -2.430810 1.220363 -23.168497 -2.729933 54.436412 -32.932235 -35.079291 10.976037 16.289661 -6.228362 -10.139605 -1.785479 -5.722427 -7.791157 -21.483174 3.794600 -58.147050 -26.994617 48.218908 2.366967 3.987012 -0.918225 -26.295881 -29.177920 5.378218 53.852772 87.078134 51.931352 1.940317 -26.790450 -4.888895 -1.027345 2.653840 -0.577754 -14.622000 -47.880410 9.543372 176.518330 71.871453 174.480946 -3.021497 -25.546999 1.590640 -0.451952 -0.940198 -0.226860
-75.265705 74.209468 52.624557 -171.624996 -29.178785 -10.549034 -3.096255 13.317966 5.771731 -2.277304 7.908533 1.502077 -2.825364 9.881748 1.836884 -2.281154 7.898374 1.505691 2.105176 20.676700 -1.899469 2.684953 -3.704564 -2.511269 7.348357 -3.250420 -2.427272 1.113790 -23.134016 -2.684265 54.485383 -32.999827 -35.119420 11.024460 16.276429 -6.227266 -10.126409 -1.762911 -5.728878 -7.762851 -21.468979 3.788938 -58.127207 -27.071426 48.243092 2.350835 3.946326 -0.927011 -26.327900 -29.188025 5.425062 54.555789 87.111057 52.637232 1.967310 -26.832023 -4.901866 -1.046079 2.676717 -0.581703 -14.642119 -47.840130 9.586016 176.497825 71.918419 174.476977 -3.008194 -25.508649 1.580828 -0.458768 -0.964555 -0.235223
-75.260038 74.076573 52.632528 -171.617767 -29.170644 -10.577746 -3.101170 13.303788 5.799290 -2.280944 7.909187 1.502106 -2.825194 9.871482 1.835862 -2.283897 7.910695 1.503287 2.102682 20.667663 -1.895166 2.683604 -3.702164 -2.509397 7.353709 -3.241318 -2.426438 1.052668 -23.113085 -2.659750 54.474856 -33.059440 -35.128095 11.073578 16.261809 -6.227290 -10.118597 -1.750405 -5.732057 -7.672224 -21.393452 3.772678 -58.199312 -27.172876 48.313316 2.345226 3.916907 -0.935410 -26.365847 -29.208256 5.460384 55.087296 87.141128 53.174077 1.981249 -26.859641 -4.912812 -1.046175 2.688194 -0.583141 -14.640849 -47.819196 9.589914 176.402334 71.970124 174.412077 -2.998031 -25.444261 1.573772 -0.470059 -1.005746 -0.249883
-75.253802 73.957921 52.637749 -171.614832 -29.174060 -10.606754 -3.097437 13.305810 5.827804 -2.280980 7.892720 1.502285 -2.823614 9.881494 1.833045 -2.283004 7.908328 1.505333 2.093879 20.666764 -1.893094 2.686427 -3.694051 -2.509944 7.346600 -3.225406 -2.418029 1.038841 -23.109836 -2.659535 54.417835 -33.106046 -35.115090 11.020542 16.235076 -6.283637 -10.120329 -1.732686 -5.734422 -7.640381 -21.369482 3.767315 -58.204825 -27.228591 48.338275 2.337949 3.893962 -0.950306 -26.389372 -29.206500 5.488661 55.460515 87.149373 53.558505 1.983237 -26.882219 -4.928326 -1.040806 2.702959 -0.582636 -14.639961 -47.780647 9.602751 176.342387 72.025023 174.373438 -2.987311 -25.380960 1.569749 -0.481161 -1.046117 -0.259272
